<svg width="18" height="14" viewBox="0 0 18 14" fill="none" xmlns="http://www.w3.org/2000/svg">
<path d="M9.0675 0C3.375 0 0 6.75 0 6.75C0 6.75 3.375 13.5 9.0675 13.5C14.625 13.5 18 6.75 18 6.75C18 6.75 14.625 0 9.0675 0ZM9 2.25C11.4975 2.25 13.5 4.275 13.5 6.75C13.5 9.24749 11.4975 11.25 9 11.25C6.525 11.25 4.5 9.24749 4.5 6.75C4.5 4.275 6.525 2.25 9 2.25ZM9 4.5C7.7625 4.5 6.75 5.5125 6.75 6.75C6.75 7.9875 7.7625 9 9 9C10.2375 9 11.25 7.9875 11.25 6.75C11.25 6.525 11.16 6.3225 11.115 6.12C10.935 6.48 10.575 6.75 10.125 6.75C9.495 6.75 9 6.255 9 5.625C9 5.175 9.27 4.815 9.63 4.635C9.4275 4.5675 9.225 4.5 9 4.5Z" fill="white"/>
</svg>
