<svg width="30" height="30" viewBox="0 0 30 30" fill="none" xmlns="http://www.w3.org/2000/svg">
<g filter="url(#filter0_d_172_405)">
<path d="M24.4324 22.4426C24.6966 22.7068 24.845 23.0651 24.845 23.4387C24.845 23.8123 24.6966 24.1706 24.4324 24.4348C24.1683 24.699 23.8099 24.8474 23.4363 24.8474C23.0627 24.8474 22.7044 24.699 22.4402 24.4348L15 16.9922L7.55743 24.4324C7.29325 24.6966 6.93495 24.845 6.56134 24.845C6.18773 24.845 5.82943 24.6966 5.56524 24.4324C5.30106 24.1683 5.15265 23.81 5.15265 23.4363C5.15265 23.0627 5.30106 22.7044 5.56524 22.4403L13.0078 15L5.56759 7.55744C5.30341 7.29326 5.15499 6.93496 5.15499 6.56135C5.15499 6.18774 5.30341 5.82944 5.56759 5.56526C5.83177 5.30108 6.19007 5.15266 6.56368 5.15266C6.93729 5.15266 7.2956 5.30108 7.55978 5.56526L15 13.0078L22.4426 5.56408C22.7068 5.2999 23.0651 5.15149 23.4387 5.15149C23.8123 5.15149 24.1706 5.2999 24.4348 5.56408C24.699 5.82826 24.8474 6.18657 24.8474 6.56018C24.8474 6.93379 24.699 7.29209 24.4348 7.55627L16.9922 15L24.4324 22.4426Z" fill="white"/>
</g>
<defs>
<filter id="filter0_d_172_405" x="2.15265" y="4.15149" width="25.6947" height="25.6959" filterUnits="userSpaceOnUse" color-interpolation-filters="sRGB">
<feFlood flood-opacity="0" result="BackgroundImageFix"/>
<feColorMatrix in="SourceAlpha" type="matrix" values="0 0 0 0 0 0 0 0 0 0 0 0 0 0 0 0 0 0 127 0" result="hardAlpha"/>
<feOffset dy="2"/>
<feGaussianBlur stdDeviation="1.5"/>
<feComposite in2="hardAlpha" operator="out"/>
<feColorMatrix type="matrix" values="0 0 0 0 0 0 0 0 0 0 0 0 0 0 0 0 0 0 0.25 0"/>
<feBlend mode="normal" in2="BackgroundImageFix" result="effect1_dropShadow_172_405"/>
<feBlend mode="normal" in="SourceGraphic" in2="effect1_dropShadow_172_405" result="shape"/>
</filter>
</defs>
</svg>
