<svg width="30" height="30" viewBox="0 0 30 30" fill="none" xmlns="http://www.w3.org/2000/svg">
<g clip-path="url(#clip0_172_527)">
<path d="M13.5 24H16.5V21H13.5V24ZM15 0C13.0302 0 11.0796 0.387987 9.25975 1.14181C7.43986 1.89563 5.78628 3.00052 4.3934 4.3934C1.58035 7.20644 0 11.0218 0 15C0 18.9782 1.58035 22.7936 4.3934 25.6066C5.78628 26.9995 7.43986 28.1044 9.25975 28.8582C11.0796 29.612 13.0302 30 15 30C18.9782 30 22.7936 28.4196 25.6066 25.6066C28.4196 22.7936 30 18.9782 30 15C30 13.0302 29.612 11.0796 28.8582 9.25975C28.1044 7.43986 26.9995 5.78628 25.6066 4.3934C24.2137 3.00052 22.5601 1.89563 20.7403 1.14181C18.9204 0.387987 16.9698 0 15 0ZM15 27C8.385 27 3 21.615 3 15C3 8.385 8.385 3 15 3C21.615 3 27 8.385 27 15C27 21.615 21.615 27 15 27ZM15 6C13.4087 6 11.8826 6.63214 10.7574 7.75736C9.63214 8.88258 9 10.4087 9 12H12C12 11.2044 12.3161 10.4413 12.8787 9.87868C13.4413 9.31607 14.2044 9 15 9C15.7956 9 16.5587 9.31607 17.1213 9.87868C17.6839 10.4413 18 11.2044 18 12C18 15 13.5 14.625 13.5 19.5H16.5C16.5 16.125 21 15.75 21 12C21 10.4087 20.3679 8.88258 19.2426 7.75736C18.1174 6.63214 16.5913 6 15 6Z" fill="#F8F8F8"/>
</g>
<defs>
<clipPath id="clip0_172_527">
<rect width="30" height="30" rx="15" fill="white"/>
</clipPath>
</defs>
</svg>
