<svg width="29" height="31" viewBox="0 0 29 31" fill="none" xmlns="http://www.w3.org/2000/svg">
<path d="M1.8125 4.66667H0.5V2.22222H9.0625H9.5625V1.72222V0.5H19.4375V1.72222V2.22222H19.9375H28.5V4.66667H27.1875H26.6875V5.16667V27.5556C26.6875 28.3608 26.3928 29.0426 25.7788 29.6269C25.1646 30.2115 24.4354 30.501 23.5631 30.5H23.5625H5.4375C4.56612 30.5 3.83709 30.2104 3.22266 29.6266C2.6091 29.0436 2.31362 28.3619 2.3125 27.5553V5.16667V4.66667H1.8125ZM8.5625 24.1111V24.6111H9.0625H12.6875H13.1875V24.1111V8.61111V8.11111H12.6875H9.0625H8.5625V8.61111V24.1111ZM15.8125 24.1111V24.6111H16.3125H19.9375H20.4375V24.1111V8.61111V8.11111H19.9375H16.3125H15.8125V8.61111V24.1111Z" fill="#F03D3E" stroke="black"/>
</svg>
