<svg width="22" height="21" viewBox="0 0 22 21" fill="none" xmlns="http://www.w3.org/2000/svg">
<path d="M10.8393 0C4.86414 0 0 4.25443 0 9.48439C0 14.7144 4.86414 18.9688 10.8393 18.9688C11.9572 18.9675 13.0696 18.8125 14.1453 18.5081L17.8916 20.8928C17.9939 20.9584 18.1119 20.9953 18.2334 20.9996C18.3548 21.0039 18.4752 20.9755 18.5819 20.9173C18.6885 20.8591 18.7776 20.7733 18.8397 20.6689C18.9018 20.5644 18.9347 20.4452 18.9349 20.3237V15.7644C19.7826 14.9513 20.459 13.9767 20.9244 12.8982C21.3898 11.8197 21.6347 10.659 21.6447 9.48439C21.6786 4.25443 16.8145 0 10.8393 0ZM16.259 9.48439C16.259 9.66407 16.1876 9.83638 16.0605 9.96343C15.9335 10.0905 15.7612 10.1619 15.5815 10.1619H6.09711C5.91744 10.1619 5.74512 10.0905 5.61808 9.96343C5.49103 9.83638 5.41965 9.66407 5.41965 9.48439C5.41965 9.30472 5.49103 9.13241 5.61808 9.00536C5.74512 8.87831 5.91744 8.80694 6.09711 8.80694H15.5815C15.7612 8.80694 15.9335 8.87831 16.0605 9.00536C16.1876 9.13241 16.259 9.30472 16.259 9.48439ZM14.0572 12.8717C14.0572 13.0514 13.9859 13.2237 13.8588 13.3507C13.7318 13.4778 13.5594 13.5491 13.3798 13.5491H8.29884C8.11917 13.5491 7.94686 13.4778 7.81981 13.3507C7.69276 13.2237 7.62139 13.0514 7.62139 12.8717C7.62139 12.692 7.69276 12.5197 7.81981 12.3926C7.94686 12.2656 8.11917 12.1942 8.29884 12.1942H13.3798C13.5594 12.1942 13.7318 12.2656 13.8588 12.3926C13.9859 12.5197 14.0572 12.692 14.0572 12.8717ZM5.60934 6.09711C5.60934 5.91744 5.68072 5.74512 5.80776 5.61808C5.93481 5.49103 6.10713 5.41965 6.2868 5.41965H15.3918C15.5715 5.41965 15.7438 5.49103 15.8709 5.61808C15.9979 5.74512 16.0693 5.91744 16.0693 6.09711C16.0693 6.27678 15.9979 6.4491 15.8709 6.57614C15.7438 6.70319 15.5715 6.77457 15.3918 6.77457H6.2868C6.10713 6.77457 5.93481 6.70319 5.80776 6.57614C5.68072 6.4491 5.60934 6.27678 5.60934 6.09711Z" fill="#1E6014" fill-opacity="0.89"/>
</svg>
