<svg width="22" height="28" viewBox="0 0 22 28" fill="none" xmlns="http://www.w3.org/2000/svg">
<g clip-path="url(#clip0_60_8591)">
<path d="M21 0.875H4.25C4.1125 0.875 4 0.980469 4 1.10938V2.75C4 2.87891 4.1125 2.98438 4.25 2.98438H19.75V23.1406C19.75 23.2695 19.8625 23.375 20 23.375H21.75C21.8875 23.375 22 23.2695 22 23.1406V1.8125C22 1.29395 21.5531 0.875 21 0.875ZM17 4.625H1C0.446875 4.625 0 5.04395 0 5.5625V21.1104C0 21.3594 0.10625 21.5967 0.29375 21.7725L5.70938 26.8496C5.77813 26.9141 5.85625 26.9668 5.94063 27.0107V27.0664H6.07187C6.18125 27.1045 6.29687 27.125 6.41562 27.125H17C17.5531 27.125 18 26.7061 18 26.1875V5.5625C18 5.04395 17.5531 4.625 17 4.625ZM6.9375 25.25H6.93125L2.25 20.8613V20.8555H6.9375V25.25Z" fill="#CCCCCC"/>
</g>
<defs>
<clipPath id="clip0_60_8591">
<rect width="22" height="28" fill="white"/>
</clipPath>
</defs>
</svg>
