<svg width="28" height="29" viewBox="0 0 28 29" fill="none" xmlns="http://www.w3.org/2000/svg">
<g filter="url(#filter0_d_493_456)">
<path fill-rule="evenodd" clip-rule="evenodd" d="M7.16619 0C6.33259 0 5.53314 0.331143 4.9437 0.920582C4.35426 1.51002 4.02312 2.30947 4.02312 3.14306V17.8107C4.02312 18.6443 4.35426 19.4437 4.9437 20.0332C5.53314 20.6226 6.33259 20.9538 7.16619 20.9538H13.4523C14.2859 20.9538 15.0854 20.6226 15.6748 20.0332C16.2642 19.4437 16.5954 18.6443 16.5954 17.8107V3.14306C16.5954 2.30947 16.2642 1.51002 15.6748 0.920582C15.0854 0.331143 14.2859 0 13.4523 0H7.16619ZM17.95 5.54541C18.1465 5.349 18.4129 5.23866 18.6908 5.23866C18.9686 5.23866 19.235 5.349 19.4315 5.54541L23.6222 9.73616C23.8186 9.93263 23.929 10.1991 23.929 10.4769C23.929 10.7547 23.8186 11.0211 23.6222 11.2176L19.4315 15.4083C19.2339 15.5992 18.9692 15.7048 18.6945 15.7024C18.4198 15.7 18.157 15.5898 17.9628 15.3956C17.7685 15.2013 17.6584 14.9386 17.656 14.6639C17.6536 14.3892 17.7592 14.1245 17.95 13.9269L20.3524 11.5246H11.3569C11.0791 11.5246 10.8126 11.4142 10.6161 11.2177C10.4196 11.0212 10.3092 10.7547 10.3092 10.4769C10.3092 10.199 10.4196 9.93253 10.6161 9.73605C10.8126 9.53957 11.0791 9.42919 11.3569 9.42919H20.3524L17.95 7.02684C17.7536 6.83037 17.6433 6.56394 17.6433 6.28613C17.6433 6.00832 17.7536 5.74188 17.95 5.54541Z" fill="#F03D3E"/>
</g>
<defs>
<filter id="filter0_d_493_456" x="0" y="0" width="27.9521" height="29" filterUnits="userSpaceOnUse" color-interpolation-filters="sRGB">
<feFlood flood-opacity="0" result="BackgroundImageFix"/>
<feColorMatrix in="SourceAlpha" type="matrix" values="0 0 0 0 0 0 0 0 0 0 0 0 0 0 0 0 0 0 127 0" result="hardAlpha"/>
<feOffset dy="4"/>
<feGaussianBlur stdDeviation="2"/>
<feComposite in2="hardAlpha" operator="out"/>
<feColorMatrix type="matrix" values="0 0 0 0 0 0 0 0 0 0 0 0 0 0 0 0 0 0 0.25 0"/>
<feBlend mode="normal" in2="BackgroundImageFix" result="effect1_dropShadow_493_456"/>
<feBlend mode="normal" in="SourceGraphic" in2="effect1_dropShadow_493_456" result="shape"/>
</filter>
</defs>
</svg>
