<svg width="19" height="17" viewBox="0 0 19 17" fill="none" xmlns="http://www.w3.org/2000/svg">
<path d="M13.5714 7.29167V5.20833H19V7.29167H13.5714ZM7.2381 8.33333C6.24286 8.33333 5.39087 7.92535 4.68214 7.10937C3.97341 6.2934 3.61905 5.3125 3.61905 4.16667C3.61905 3.02083 3.97341 2.03993 4.68214 1.22396C5.39087 0.407986 6.24286 0 7.2381 0C8.23333 0 9.08532 0.407986 9.79405 1.22396C10.5028 2.03993 10.8571 3.02083 10.8571 4.16667C10.8571 5.3125 10.5028 6.2934 9.79405 7.10937C9.08532 7.92535 8.23333 8.33333 7.2381 8.33333ZM0 16.6667V13.75C0 13.1597 0.132095 12.617 0.396286 12.1219C0.660476 11.6267 1.01092 11.2493 1.44762 10.9896C2.38254 10.4514 3.33254 10.0476 4.29762 9.77812C5.2627 9.50868 6.24286 9.37431 7.2381 9.375C8.23333 9.375 9.21349 9.50972 10.1786 9.77917C11.1437 10.0486 12.0937 10.4521 13.0286 10.9896C13.4659 11.25 13.8166 11.6278 14.0808 12.1229C14.345 12.6181 14.4768 13.1604 14.4762 13.75V16.6667H0Z" fill="#F03D3E"/>
</svg>
