<svg width="25" height="25" viewBox="0 0 25 25" fill="none" xmlns="http://www.w3.org/2000/svg">
<path d="M18.75 14.5834V11.4584H15.625V9.37502H18.75V6.25002H20.8334V9.37502H23.9584V11.4584H20.8334V14.5834H18.75ZM9.37502 12.5C8.22919 12.5 7.24828 12.092 6.43231 11.2761C5.61634 10.4601 5.20835 9.47919 5.20835 8.33335C5.20835 7.18752 5.61634 6.20662 6.43231 5.39065C7.24828 4.57467 8.22919 4.16669 9.37502 4.16669C10.5209 4.16669 11.5018 4.57467 12.3177 5.39065C13.1337 6.20662 13.5417 7.18752 13.5417 8.33335C13.5417 9.47919 13.1337 10.4601 12.3177 11.2761C11.5018 12.092 10.5209 12.5 9.37502 12.5ZM1.04169 20.8334V17.9167C1.04169 17.3264 1.19377 16.7837 1.49794 16.2886C1.8021 15.7934 2.20558 15.416 2.70835 15.1563C3.78474 14.6181 4.87849 14.2143 5.9896 13.9448C7.10071 13.6754 8.22919 13.541 9.37502 13.5417C10.5209 13.5417 11.6493 13.6764 12.7604 13.9459C13.8715 14.2153 14.9653 14.6188 16.0417 15.1563C16.5452 15.4167 16.949 15.7945 17.2531 16.2896C17.5573 16.7847 17.709 17.3271 17.7084 17.9167V20.8334H1.04169Z" fill="white"/>
</svg>
